Full Credits to (Pitic):


 ######## ######## ######## ##          ######## ########  ######## ######
 ##       ##       ##       ##          ##       ##     ## ##       ##       
 ##       ##       ##       ##          ##       ##     ## ##       ##       
 ######   ######   ######   ##          ######   ########  ######   ######   
 ##       ##       ##       ##          ##       ##   ##   ##       ##       
 ##       ##       ##       ##          ##       ##    ##  ##       ##       
 ##       ######## ######## ########    ##       ##     ## ######## ######

Genre:Comedy | Romance
 Language:English
 IMDb:  http://www.imdb.com/title/tt1487118/
 Source:720p.BluRay.x264-TMD

 Format : MPEG-4
 Format profile : Base Media
 Codec ID : isom
 File size : 2.21 GiB
 Duration : 1h 32mn
 Overall bit rate : 3 411 Kbps

 Video
 Format profile : High@L4.1
 Format settings, CABAC : Yes
 Format settings, ReFrames : 3 frames
 Codec ID : avc1
 Codec ID/Info : Advanced Video Coding
 Duration : 1h 32mn
 Bit rate mode : Variable
 Bit rate : 3 000 Kbps
 Maximum bit rate : 17.1 Mbps
 Width : 1 280 pixels
 Height : 688 pixels
 Display aspect ratio : 1.860
 Frame rate mode : Constant
 Frame rate : 25.000 fps
 Color space : YUV
 Chroma subsampling : 4:2:0
 Bit depth : 8 bits
 Scan type : Progressive
 Bits/(Pixel*Frame) : 0.136
 Stream size : 1.92 GiB (87%)
 Writing library : x264

 Audio
 ID : 2
 Format : AAC
 Format/Info : Advanced Audio Codec
 Format version : Version 4
 Format profile : LC
 Format settings, SBR : No
 Codec ID : 40
 Duration : 1h 32mn
 Bit rate mode : Variable
 Bit rate : 445 Kbps
 Maximum bit rate : 565 Kbps
 Channel(s) : 6 channels
 Channel positions : Front: L C R, Side: L R, LFE
 Sampling rate : 48.0 KHz
 Stream size : 295 MiB (13%)


 Plot:
 Pretty tomboy Kim Matthews, 19, used to be a champion skateboarder - but now she's stuck in a dead end job trying to support her Dad..

Full Credits to (Pitic):


 ######## ######## ######## ##          ######## ########  ######## ######
 ##       ##       ##       ##          ##       ##     ## ##       ##       
 ##       ##       ##       ##          ##       ##     ## ##       ##       
 ######   ######   ######   ##          ######   ########  ######   ######   
 ##       ##       ##       ##          ##       ##   ##   ##       ##       
 ##       ##       ##       ##          ##       ##    ##  ##       ##       
 ##       ######## ######## ########    ##       ##     ## ######## ######